<svg width="66" height="26" viewBox="0 0 66 26" fill="none" xmlns="http://www.w3.org/2000/svg">
<rect x="0.5" y="0.5" width="65" height="25" rx="3.5" fill="#D8E4FB"/>
<rect x="0.5" y="0.5" width="65" height="25" rx="3.5" stroke="#ADBFDF"/>
<path d="M8.37598 18L11.7324 13.0576V13.0098L8.41699 8.13574H9.90039L12.5322 12.1006H12.5801L15.2461 8.13574H16.6475L13.2432 13.0713V13.1123L16.5723 18H15.0957L12.4775 14.0693H12.4297L9.77051 18H8.37598ZM20.5371 18.123C19.5436 18.123 18.7461 17.7926 18.1445 17.1318C17.543 16.4665 17.2422 15.571 17.2422 14.4453C17.2422 13.3197 17.543 12.4264 18.1445 11.7656C18.7461 11.1003 19.5436 10.7676 20.5371 10.7676C21.526 10.7676 22.3213 11.1003 22.9229 11.7656C23.5244 12.4264 23.8252 13.3197 23.8252 14.4453C23.8252 15.5664 23.5244 16.4596 22.9229 17.125C22.3213 17.7904 21.526 18.123 20.5371 18.123ZM19.0127 16.3799C19.391 16.8447 19.8991 17.0771 20.5371 17.0771C21.1751 17.0771 21.681 16.847 22.0547 16.3867C22.4284 15.9219 22.6152 15.2747 22.6152 14.4453C22.6152 13.6159 22.4284 12.971 22.0547 12.5107C21.681 12.0459 21.1751 11.8135 20.5371 11.8135C19.8991 11.8135 19.391 12.0459 19.0127 12.5107C18.639 12.9756 18.4521 13.6204 18.4521 14.4453C18.4521 15.2702 18.639 15.915 19.0127 16.3799ZM28.6035 10.7676C29.515 10.7676 30.2487 11.1025 30.8047 11.7725C31.3652 12.4424 31.6455 13.3333 31.6455 14.4453C31.6455 15.5527 31.3675 16.4437 30.8115 17.1182C30.2555 17.7881 29.5286 18.123 28.6309 18.123C28.1296 18.123 27.6807 18.0091 27.2842 17.7812C26.8877 17.5534 26.5824 17.2412 26.3682 16.8447H26.3408V20.3721H25.1514V10.8906H26.2793V12.0938H26.3066C26.5299 11.6836 26.8421 11.36 27.2432 11.123C27.6442 10.8861 28.0977 10.7676 28.6035 10.7676ZM28.3711 17.0771C29.0046 17.0771 29.5059 16.8402 29.875 16.3662C30.2441 15.8923 30.4287 15.252 30.4287 14.4453C30.4287 13.6387 30.2441 12.9984 29.875 12.5244C29.5059 12.0505 29.0046 11.8135 28.3711 11.8135C27.7604 11.8135 27.2682 12.055 26.8945 12.5381C26.5208 13.0212 26.334 13.6569 26.334 14.4453C26.334 15.2383 26.5208 15.8763 26.8945 16.3594C27.2682 16.8379 27.7604 17.0771 28.3711 17.0771ZM35.918 18.123C34.9245 18.123 34.127 17.7926 33.5254 17.1318C32.9238 16.4665 32.623 15.571 32.623 14.4453C32.623 13.3197 32.9238 12.4264 33.5254 11.7656C34.127 11.1003 34.9245 10.7676 35.918 10.7676C36.9069 10.7676 37.7021 11.1003 38.3037 11.7656C38.9053 12.4264 39.2061 13.3197 39.2061 14.4453C39.2061 15.5664 38.9053 16.4596 38.3037 17.125C37.7021 17.7904 36.9069 18.123 35.918 18.123ZM34.3936 16.3799C34.7718 16.8447 35.2799 17.0771 35.918 17.0771C36.556 17.0771 37.0618 16.847 37.4355 16.3867C37.8092 15.9219 37.9961 15.2747 37.9961 14.4453C37.9961 13.6159 37.8092 12.971 37.4355 12.5107C37.0618 12.0459 36.556 11.8135 35.918 11.8135C35.2799 11.8135 34.7718 12.0459 34.3936 12.5107C34.0199 12.9756 33.833 13.6204 33.833 14.4453C33.833 15.2702 34.0199 15.915 34.3936 16.3799ZM40.5254 18V10.8906H41.7012V17.0225H44.3262V10.8906H45.502V17.0225H48.127V10.8906H49.3027V18H40.5254ZM53.9238 18.123C52.9303 18.123 52.1328 17.7926 51.5312 17.1318C50.9297 16.4665 50.6289 15.571 50.6289 14.4453C50.6289 13.3197 50.9297 12.4264 51.5312 11.7656C52.1328 11.1003 52.9303 10.7676 53.9238 10.7676C54.9128 10.7676 55.708 11.1003 56.3096 11.7656C56.9111 12.4264 57.2119 13.3197 57.2119 14.4453C57.2119 15.5664 56.9111 16.4596 56.3096 17.125C55.708 17.7904 54.9128 18.123 53.9238 18.123ZM52.3994 16.3799C52.7777 16.8447 53.2858 17.0771 53.9238 17.0771C54.5618 17.0771 55.0677 16.847 55.4414 16.3867C55.8151 15.9219 56.002 15.2747 56.002 14.4453C56.002 13.6159 55.8151 12.971 55.4414 12.5107C55.0677 12.0459 54.5618 11.8135 53.9238 11.8135C53.2858 11.8135 52.7777 12.0459 52.3994 12.5107C52.0257 12.9756 51.8389 13.6204 51.8389 14.4453C51.8389 15.2702 52.0257 15.915 52.3994 16.3799Z" fill="#122945"/>
</svg>
