<svg width="70" height="26" viewBox="0 0 70 26" fill="none" xmlns="http://www.w3.org/2000/svg">
<rect x="0.5" y="0.5" width="69" height="25" rx="3.5" fill="#DBF8EF"/>
<rect x="0.5" y="0.5" width="69" height="25" rx="3.5" stroke="#28A879"/>
<path d="M13.1953 18.1641C15.9912 18.1641 17.7344 16.2021 17.7344 13.0713V13.0576C17.7344 9.93359 15.9844 7.97168 13.1953 7.97168C10.3994 7.97168 8.64258 9.93359 8.64258 13.0576V13.0713C8.64258 16.2021 10.3926 18.1641 13.1953 18.1641ZM13.1953 17.0293C11.1719 17.0293 9.90039 15.498 9.90039 13.0713V13.0576C9.90039 10.6309 11.1787 9.10645 13.1953 9.10645C15.2051 9.10645 16.4766 10.6377 16.4766 13.0576V13.0713C16.4766 15.4775 15.2256 17.0293 13.1953 17.0293ZM24.4131 10.8906H18.6436V11.875H20.9336V18H22.123V11.875H24.4131V10.8906ZM26.9424 14.8691L27.168 11.875H29.9023V18H31.0918V10.8906H26.0947L25.8145 14.8418C25.7188 16.1475 25.459 16.9746 24.7002 16.9746C24.5156 16.9746 24.3857 16.9473 24.3242 16.9268V18C24.4199 18.0342 24.5977 18.0684 24.8232 18.0684C26.334 18.0684 26.792 16.8311 26.9424 14.8691ZM32.7734 18H33.9492L37.4902 12.7158H37.5449V18H38.7344V10.8906H37.5586L34.0176 16.1748H33.9629V10.8906H32.7734V18ZM45.8232 18V10.8906H44.6338V13.8848C44.3057 14.2129 43.6699 14.4316 43.041 14.4316C41.9541 14.4316 41.4141 13.9326 41.4141 12.9209V10.8906H40.2246V13.0029C40.2246 14.5137 41.1064 15.4844 42.8154 15.4844C43.4922 15.4844 44.1621 15.2861 44.6064 14.8896H44.6338V18H45.8232ZM52.167 18H53.3564V10.8906H52.167V13.8232H48.6875V10.8906H47.498V18H48.6875V14.8076H52.167V18ZM57.9844 18.1367C59.9463 18.1367 61.2725 16.7148 61.2725 14.4453V14.4316C61.2725 12.1621 59.9395 10.7539 57.9775 10.7539C56.0156 10.7539 54.6895 12.1689 54.6895 14.4316V14.4453C54.6895 16.708 56.0088 18.1367 57.9844 18.1367ZM57.9912 17.084C56.7334 17.084 55.9062 16.1201 55.9062 14.4453V14.4316C55.9062 12.7705 56.7402 11.8066 57.9775 11.8066C59.2354 11.8066 60.0557 12.7637 60.0557 14.4316V14.4453C60.0557 16.1133 59.2422 17.084 57.9912 17.084Z" fill="#00A775"/>
</svg>
