<svg width="55" height="26" viewBox="0 0 55 26" fill="none" xmlns="http://www.w3.org/2000/svg">
<rect x="0.5" y="0.5" width="54" height="25" rx="3.5" fill="#FEE9EF"/>
<rect x="0.5" y="0.5" width="54" height="25" rx="3.5" stroke="#EA1A4F"/>
<path d="M16.7568 18H15.54V9.25684H10.2627V18H9.02539V8.13574H16.7568V18ZM20.5234 14.8623C20.4915 15.2725 20.446 15.6348 20.3867 15.9492C20.332 16.2637 20.2523 16.5576 20.1475 16.8311C20.0426 17.1045 19.9128 17.3301 19.7578 17.5078C19.6074 17.681 19.4183 17.8177 19.1904 17.918C18.9671 18.0137 18.7074 18.0615 18.4111 18.0615C18.2471 18.0615 18.1058 18.0365 17.9873 17.9863V16.9131C18.0967 16.9495 18.2174 16.9678 18.3496 16.9678C18.6823 16.9678 18.9307 16.7878 19.0947 16.4277C19.2588 16.0632 19.3636 15.5322 19.4092 14.835L19.6826 10.8906H24.3379V18H23.1621V11.8682H20.7422L20.5234 14.8623ZM28.9727 18.123C27.9792 18.123 27.1816 17.7926 26.5801 17.1318C25.9785 16.4665 25.6777 15.571 25.6777 14.4453C25.6777 13.3197 25.9785 12.4264 26.5801 11.7656C27.1816 11.1003 27.9792 10.7676 28.9727 10.7676C29.9616 10.7676 30.7568 11.1003 31.3584 11.7656C31.96 12.4264 32.2607 13.3197 32.2607 14.4453C32.2607 15.5664 31.96 16.4596 31.3584 17.125C30.7568 17.7904 29.9616 18.123 28.9727 18.123ZM27.4482 16.3799C27.8265 16.8447 28.3346 17.0771 28.9727 17.0771C29.6107 17.0771 30.1165 16.847 30.4902 16.3867C30.8639 15.9219 31.0508 15.2747 31.0508 14.4453C31.0508 13.6159 30.8639 12.971 30.4902 12.5107C30.1165 12.0459 29.6107 11.8135 28.9727 11.8135C28.3346 11.8135 27.8265 12.0459 27.4482 12.5107C27.0745 12.9756 26.8877 13.6204 26.8877 14.4453C26.8877 15.2702 27.0745 15.915 27.4482 16.3799ZM35.9658 15.293H35.9385L34.2227 18H32.9033L35.3232 14.4453L32.9443 10.8906H34.2705L35.9795 13.5566H36.0068L37.6953 10.8906H39.0215L36.6221 14.3975L38.9873 18H37.668L35.9658 15.293ZM42.959 18.123C41.9655 18.123 41.168 17.7926 40.5664 17.1318C39.9648 16.4665 39.6641 15.571 39.6641 14.4453C39.6641 13.3197 39.9648 12.4264 40.5664 11.7656C41.168 11.1003 41.9655 10.7676 42.959 10.7676C43.9479 10.7676 44.7432 11.1003 45.3447 11.7656C45.9463 12.4264 46.2471 13.3197 46.2471 14.4453C46.2471 15.5664 45.9463 16.4596 45.3447 17.125C44.7432 17.7904 43.9479 18.123 42.959 18.123ZM41.4346 16.3799C41.8128 16.8447 42.321 17.0771 42.959 17.0771C43.597 17.0771 44.1029 16.847 44.4766 16.3867C44.8503 15.9219 45.0371 15.2747 45.0371 14.4453C45.0371 13.6159 44.8503 12.971 44.4766 12.5107C44.1029 12.0459 43.597 11.8135 42.959 11.8135C42.321 11.8135 41.8128 12.0459 41.4346 12.5107C41.0609 12.9756 40.874 13.6204 40.874 14.4453C40.874 15.2702 41.0609 15.915 41.4346 16.3799Z" fill="#EA1A4F"/>
</svg>
